<svg width="10" height="10" viewBox="0 0 10 10" fill="none" xmlns="http://www.w3.org/2000/svg">
<path d="M5 8.75C7.07107 8.75 8.75 7.07107 8.75 5C8.75 2.92893 7.07107 1.25 5 1.25M5 8.75C2.92893 8.75 1.25 7.07107 1.25 5C1.25 2.92893 2.92893 1.25 5 1.25M5 8.75C4.09391 8.75 3.35937 7.07107 3.35937 5C3.35937 2.92893 4.09391 1.25 5 1.25M5 8.75C5.90609 8.75 6.64062 7.07107 6.64062 5C6.64062 2.92893 5.90609 1.25 5 1.25M1.95312 6.82267C2.64013 6.42927 3.78155 6.17187 5.07348 6.17187C6.42185 6.17187 7.60627 6.45225 8.28125 6.875M1.95312 3.17733C2.64013 3.57073 3.78155 3.82812 5.07348 3.82812C6.42185 3.82812 7.60627 3.54775 8.28125 3.125" stroke="currentColor" stroke-width="0.833333"/>
</svg>
