<svg width="24" height="24" viewBox="0 0 24 24" fill="none" xmlns="http://www.w3.org/2000/svg">
<path d="M5.9999 22.1998L16.1999 12.5998L20.9999 17.3998M5.9999 22.1998H17.9999C19.9881 22.1998 21.5999 20.588 21.5999 18.5998V11.9998M5.9999 22.1998C4.01168 22.1998 2.3999 20.588 2.3999 18.5998V6.5998C2.3999 4.61158 4.01168 2.9998 5.9999 2.9998H12.5999M16.7999 4.14768C16.7999 2.85098 17.8744 1.7998 19.1999 1.7998C20.5254 1.7998 21.5999 2.85098 21.5999 4.14768C21.5999 5.44438 20.5254 6.49556 19.1999 6.49556M19.1999 9.69004V9.5998M9.5999 8.3998C9.5999 9.39392 8.79401 10.1998 7.7999 10.1998C6.80579 10.1998 5.9999 9.39392 5.9999 8.3998C5.9999 7.40569 6.80579 6.5998 7.7999 6.5998C8.79401 6.5998 9.5999 7.40569 9.5999 8.3998Z" stroke="currentColor" stroke-width="2" stroke-linecap="round" stroke-linejoin="round"/>
</svg>
