<svg width="148" height="26" viewBox="0 0 148 26" fill="none" xmlns="http://www.w3.org/2000/svg">
<path d="M4 13H10.7996L14.7088 13M14.7088 13C17.2125 13 19.2417 15.0147 19.2417 17.5C19.2417 19.9853 17.212 22 14.7084 22H11.9336C9.19211 22 6.90524 20.0676 6.38008 17.5M14.7088 13L21 13M19.2414 9.625C19.2414 6.5184 16.7043 4 13.5747 4H10.8C8.29631 4 6.26667 6.01472 6.26667 8.5V9.625" stroke="currentColor" stroke-width="2" stroke-linecap="round" stroke-linejoin="round"/>
<path d="M41.4148 10.2727V11.8636H36.3977V10.2727H41.4148ZM37.6364 8.18182H39.6932V16.375C39.6932 16.6515 39.7348 16.8636 39.8182 17.0114C39.9053 17.1553 40.0189 17.2538 40.1591 17.3068C40.2992 17.3598 40.4545 17.3864 40.625 17.3864C40.7538 17.3864 40.8712 17.3769 40.9773 17.358C41.0871 17.339 41.1705 17.322 41.2273 17.3068L41.5739 18.9148C41.464 18.9527 41.3068 18.9943 41.1023 19.0398C40.9015 19.0852 40.6553 19.1117 40.3636 19.1193C39.8485 19.1345 39.3845 19.0568 38.9716 18.8864C38.5587 18.7121 38.2311 18.4432 37.9886 18.0795C37.75 17.7159 37.6326 17.2614 37.6364 16.7159V8.18182ZM44.2334 22.2727C43.953 22.2727 43.6936 22.25 43.4549 22.2045C43.2201 22.1629 43.0326 22.1136 42.8924 22.0568L43.3697 20.4545C43.669 20.5417 43.936 20.5833 44.1709 20.5795C44.4057 20.5758 44.6121 20.5019 44.7902 20.358C44.972 20.2178 45.1254 19.983 45.2504 19.6534L45.4265 19.1818L42.2618 10.2727H44.4436L46.4549 16.8636H46.5459L48.5629 10.2727H50.7504L47.2561 20.0568C47.0932 20.5189 46.8773 20.9148 46.6084 21.2443C46.3394 21.5777 46.0099 21.8314 45.6197 22.0057C45.2334 22.1837 44.7712 22.2727 44.2334 22.2727ZM51.9937 22.2727V10.2727H54.0164V11.7159H54.1357C54.2418 11.5038 54.3914 11.2784 54.5846 11.0398C54.7778 10.7973 55.0391 10.5909 55.3687 10.4205C55.6982 10.2462 56.1187 10.1591 56.6301 10.1591C57.3043 10.1591 57.9123 10.3314 58.4539 10.6761C58.9994 11.017 59.4312 11.5227 59.7494 12.1932C60.0713 12.8598 60.2323 13.678 60.2323 14.6477C60.2323 15.6061 60.0751 16.4205 59.7607 17.0909C59.4463 17.7614 59.0183 18.2727 58.4766 18.625C57.935 18.9773 57.3213 19.1534 56.6357 19.1534C56.1357 19.1534 55.721 19.0701 55.3914 18.9034C55.0619 18.7367 54.7967 18.536 54.596 18.3011C54.399 18.0625 54.2456 17.8371 54.1357 17.625H54.0505V22.2727H51.9937ZM54.0107 14.6364C54.0107 15.2008 54.0903 15.6951 54.2494 16.1193C54.4123 16.5436 54.6452 16.875 54.9482 17.1136C55.2551 17.3485 55.6263 17.4659 56.0619 17.4659C56.5164 17.4659 56.8971 17.3447 57.2039 17.1023C57.5107 16.8561 57.7418 16.5208 57.8971 16.0966C58.0562 15.6686 58.1357 15.1818 58.1357 14.6364C58.1357 14.0947 58.0581 13.6136 57.9028 13.1932C57.7475 12.7727 57.5164 12.4432 57.2096 12.2045C56.9028 11.9659 56.5202 11.8466 56.0619 11.8466C55.6225 11.8466 55.2494 11.9621 54.9426 12.1932C54.6357 12.4242 54.4028 12.7481 54.2437 13.1648C54.0884 13.5814 54.0107 14.072 54.0107 14.6364ZM65.6773 19.1705C64.8023 19.1705 64.0466 18.9886 63.4103 18.625C62.7777 18.2576 62.291 17.7386 61.9501 17.0682C61.6091 16.3939 61.4387 15.6004 61.4387 14.6875C61.4387 13.7898 61.6091 13.0019 61.9501 12.3239C62.2948 11.642 62.7758 11.1117 63.3932 10.733C64.0107 10.3504 64.736 10.1591 65.5694 10.1591C66.1073 10.1591 66.6148 10.2462 67.0921 10.4205C67.5732 10.5909 67.9974 10.8561 68.3648 11.2159C68.736 11.5758 69.0277 12.0341 69.2398 12.5909C69.452 13.1439 69.558 13.803 69.558 14.5682V15.1989H62.4046V13.8125H67.5864C67.5826 13.4186 67.4974 13.0682 67.3307 12.7614C67.1641 12.4508 66.9311 12.2064 66.6319 12.0284C66.3364 11.8504 65.9917 11.7614 65.5978 11.7614C65.1773 11.7614 64.808 11.8636 64.4898 12.0682C64.1716 12.2689 63.9235 12.5341 63.7455 12.8636C63.5713 13.1894 63.4823 13.5473 63.4785 13.9375V15.1477C63.4785 15.6553 63.5713 16.0909 63.7569 16.4545C63.9425 16.8144 64.2019 17.0909 64.5353 17.2841C64.8686 17.4735 65.2588 17.5682 65.7057 17.5682C66.005 17.5682 66.2758 17.5265 66.5182 17.4432C66.7607 17.3561 66.9709 17.2292 67.1489 17.0625C67.3269 16.8958 67.4614 16.6894 67.5523 16.4432L69.4728 16.6591C69.3516 17.1667 69.1205 17.6098 68.7796 17.9886C68.4425 18.3636 68.0107 18.6553 67.4841 18.8636C66.9576 19.0682 66.3554 19.1705 65.6773 19.1705ZM76.4078 13.3068V15H71.1692V13.3068H76.4078ZM85.2889 12.5795L83.4139 12.7841C83.3609 12.5947 83.2681 12.4167 83.1355 12.25C83.0067 12.0833 82.8325 11.9489 82.6128 11.8466C82.3931 11.7443 82.1241 11.6932 81.806 11.6932C81.3779 11.6932 81.0181 11.786 80.7264 11.9716C80.4385 12.1572 80.2965 12.3977 80.3003 12.6932C80.2965 12.947 80.3893 13.1534 80.5787 13.3125C80.7719 13.4716 81.0901 13.6023 81.5332 13.7045L83.0219 14.0227C83.8476 14.2008 84.4613 14.483 84.8628 14.8693C85.2681 15.2557 85.4726 15.7614 85.4764 16.3864C85.4726 16.9356 85.3116 17.4205 84.9935 17.8409C84.6791 18.2576 84.2416 18.5833 83.681 18.8182C83.1204 19.053 82.4764 19.1705 81.7491 19.1705C80.681 19.1705 79.8211 18.947 79.1696 18.5C78.5181 18.0492 78.1298 17.4223 78.0048 16.6193L80.0105 16.4261C80.1014 16.8201 80.2946 17.1174 80.5901 17.3182C80.8855 17.5189 81.27 17.6193 81.7435 17.6193C82.2321 17.6193 82.6241 17.5189 82.9196 17.3182C83.2188 17.1174 83.3685 16.8693 83.3685 16.5739C83.3685 16.3239 83.2719 16.1174 83.0787 15.9545C82.8893 15.7917 82.5938 15.6667 82.1923 15.5795L80.7037 15.267C79.8666 15.0928 79.2473 14.7992 78.8457 14.3864C78.4442 13.9697 78.2454 13.4432 78.2491 12.8068C78.2454 12.2689 78.3912 11.803 78.6866 11.4091C78.9859 11.0114 79.4007 10.7045 79.931 10.4886C80.4651 10.2689 81.0806 10.1591 81.7776 10.1591C82.8003 10.1591 83.6052 10.3769 84.1923 10.8125C84.7832 11.2481 85.1488 11.8371 85.2889 12.5795ZM91.3504 10.2727V11.8636H86.3334V10.2727H91.3504ZM87.572 8.18182H89.6288V16.375C89.6288 16.6515 89.6705 16.8636 89.7538 17.0114C89.8409 17.1553 89.9546 17.2538 90.0947 17.3068C90.2349 17.3598 90.3902 17.3864 90.5606 17.3864C90.6894 17.3864 90.8068 17.3769 90.9129 17.358C91.0227 17.339 91.1061 17.322 91.1629 17.3068L91.5095 18.9148C91.3996 18.9527 91.2424 18.9943 91.0379 19.0398C90.8371 19.0852 90.5909 19.1117 90.2993 19.1193C89.7841 19.1345 89.3201 19.0568 88.9072 18.8864C88.4943 18.7121 88.1667 18.4432 87.9243 18.0795C87.6856 17.7159 87.5682 17.2614 87.572 16.7159V8.18182ZM92.8906 19V10.2727H94.8849V11.7273H94.9758C95.1349 11.2235 95.4076 10.8352 95.794 10.5625C96.1841 10.286 96.6292 10.1477 97.1292 10.1477C97.2428 10.1477 97.3697 10.1534 97.5099 10.1648C97.6538 10.1723 97.7731 10.1856 97.8678 10.2045V12.0966C97.7807 12.0663 97.6425 12.0398 97.4531 12.017C97.2675 11.9905 97.0875 11.9773 96.9133 11.9773C96.5383 11.9773 96.2012 12.0587 95.9019 12.2216C95.6065 12.3807 95.3735 12.6023 95.2031 12.8864C95.0326 13.1705 94.9474 13.4981 94.9474 13.8693V19H92.8906ZM99.0543 19V10.2727H101.111V19H99.0543ZM100.088 9.03409C99.7627 9.03409 99.4823 8.92614 99.2475 8.71023C99.0127 8.49053 98.8952 8.22727 98.8952 7.92045C98.8952 7.60985 99.0127 7.34659 99.2475 7.13068C99.4823 6.91098 99.7627 6.80114 100.088 6.80114C100.418 6.80114 100.698 6.91098 100.929 7.13068C101.164 7.34659 101.282 7.60985 101.282 7.92045C101.282 8.22727 101.164 8.49053 100.929 8.71023C100.698 8.92614 100.418 9.03409 100.088 9.03409ZM104.921 16.2614L104.916 13.7784H105.245L108.381 10.2727H110.785L106.927 14.5682H106.501L104.921 16.2614ZM103.046 19V7.36364H105.103V19H103.046ZM108.523 19L105.683 15.0284L107.069 13.5795L110.984 19H108.523ZM115.48 19.1705C114.605 19.1705 113.849 18.9886 113.213 18.625C112.58 18.2576 112.093 17.7386 111.753 17.0682C111.412 16.3939 111.241 15.6004 111.241 14.6875C111.241 13.7898 111.412 13.0019 111.753 12.3239C112.097 11.642 112.578 11.1117 113.196 10.733C113.813 10.3504 114.539 10.1591 115.372 10.1591C115.91 10.1591 116.417 10.2462 116.895 10.4205C117.376 10.5909 117.8 10.8561 118.167 11.2159C118.539 11.5758 118.83 12.0341 119.042 12.5909C119.254 13.1439 119.361 13.803 119.361 14.5682V15.1989H112.207V13.8125H117.389C117.385 13.4186 117.3 13.0682 117.133 12.7614C116.967 12.4508 116.734 12.2064 116.434 12.0284C116.139 11.8504 115.794 11.7614 115.4 11.7614C114.98 11.7614 114.611 11.8636 114.292 12.0682C113.974 12.2689 113.726 12.5341 113.548 12.8636C113.374 13.1894 113.285 13.5473 113.281 13.9375V15.1477C113.281 15.6553 113.374 16.0909 113.559 16.4545C113.745 16.8144 114.004 17.0909 114.338 17.2841C114.671 17.4735 115.061 17.5682 115.508 17.5682C115.807 17.5682 116.078 17.5265 116.321 17.4432C116.563 17.3561 116.773 17.2292 116.951 17.0625C117.129 16.8958 117.264 16.6894 117.355 16.4432L119.275 16.6591C119.154 17.1667 118.923 17.6098 118.582 17.9886C118.245 18.3636 117.813 18.6553 117.287 18.8636C116.76 19.0682 116.158 19.1705 115.48 19.1705ZM126.21 13.3068V15H120.972V13.3068H126.21ZM132.472 19.2216C131.536 19.2216 130.733 18.9848 130.063 18.5114C129.396 18.0341 128.883 17.3466 128.523 16.4489C128.167 15.5473 127.989 14.4621 127.989 13.1932C127.993 11.9242 128.173 10.8447 128.529 9.95455C128.889 9.06061 129.402 8.37879 130.069 7.90909C130.739 7.43939 131.54 7.20455 132.472 7.20455C133.404 7.20455 134.205 7.43939 134.876 7.90909C135.546 8.37879 136.059 9.06061 136.415 9.95455C136.775 10.8485 136.955 11.928 136.955 13.1932C136.955 14.4659 136.775 15.553 136.415 16.4545C136.059 17.3523 135.546 18.0379 134.876 18.5114C134.209 18.9848 133.408 19.2216 132.472 19.2216ZM132.472 17.4432C133.199 17.4432 133.773 17.0852 134.194 16.3693C134.618 15.6496 134.83 14.5909 134.83 13.1932C134.83 12.2689 134.733 11.4924 134.54 10.8636C134.347 10.2348 134.074 9.76136 133.722 9.44318C133.37 9.12121 132.953 8.96023 132.472 8.96023C131.749 8.96023 131.177 9.32008 130.756 10.0398C130.336 10.7557 130.124 11.8068 130.12 13.1932C130.116 14.1212 130.209 14.9015 130.398 15.5341C130.591 16.1667 130.864 16.6439 131.216 16.9659C131.569 17.2841 131.987 17.4432 132.472 17.4432ZM138.663 19V17.4773L142.703 13.517C143.089 13.1269 143.411 12.7803 143.669 12.4773C143.926 12.1742 144.119 11.8807 144.248 11.5966C144.377 11.3125 144.441 11.0095 144.441 10.6875C144.441 10.3201 144.358 10.0057 144.191 9.74432C144.025 9.47917 143.795 9.27462 143.504 9.13068C143.212 8.98674 142.881 8.91477 142.509 8.91477C142.127 8.91477 141.792 8.99432 141.504 9.15341C141.216 9.30871 140.992 9.5303 140.833 9.81818C140.678 10.1061 140.6 10.4489 140.6 10.8466H138.595C138.595 10.108 138.763 9.46591 139.1 8.92045C139.437 8.375 139.901 7.95265 140.492 7.65341C141.087 7.35417 141.769 7.20455 142.538 7.20455C143.318 7.20455 144.004 7.35038 144.595 7.64205C145.186 7.93371 145.644 8.33333 145.97 8.84091C146.299 9.34848 146.464 9.92803 146.464 10.5795C146.464 11.0152 146.381 11.4432 146.214 11.8636C146.047 12.2841 145.754 12.75 145.333 13.2614C144.917 13.7727 144.331 14.392 143.578 15.1193L141.572 17.1591V17.2386H146.64V19H138.663Z" fill="currentColor"/>
</svg>
