<svg width="24" height="24" viewBox="0 0 24 24" fill="none" xmlns="http://www.w3.org/2000/svg">
<path d="M9.9999 2.39999C9.9999 1.84771 9.55219 1.39999 8.9999 1.39999C8.44762 1.39999 7.9999 1.84771 7.9999 2.39999H9.9999ZM7.9999 21.6C7.9999 22.1523 8.44762 22.6 8.9999 22.6C9.55219 22.6 9.9999 22.1523 9.9999 21.6H7.9999ZM5.9999 3.39999H17.9999V1.39999H5.9999V3.39999ZM20.5999 5.99999V18H22.5999V5.99999H20.5999ZM17.9999 20.6H5.9999V22.6H17.9999V20.6ZM3.3999 18V5.99999H1.3999V18H3.3999ZM5.9999 20.6C4.56396 20.6 3.3999 19.4359 3.3999 18H1.3999C1.3999 20.5405 3.45939 22.6 5.9999 22.6V20.6ZM20.5999 18C20.5999 19.4359 19.4358 20.6 17.9999 20.6V22.6C20.5404 22.6 22.5999 20.5405 22.5999 18H20.5999ZM17.9999 3.39999C19.4358 3.39999 20.5999 4.56405 20.5999 5.99999H22.5999C22.5999 3.45948 20.5404 1.39999 17.9999 1.39999V3.39999ZM5.9999 1.39999C3.45939 1.39999 1.3999 3.45948 1.3999 5.99999H3.3999C3.3999 4.56405 4.56396 3.39999 5.9999 3.39999V1.39999ZM7.9999 2.39999V21.6H9.9999V2.39999H7.9999ZM2.9999 9.99999H20.9999V7.99999H2.9999V9.99999Z" fill="currentColor"/>
</svg>
