<svg width="118" height="119" viewBox="0 0 118 119" fill="none" xmlns="http://www.w3.org/2000/svg">
<path d="M117 59.6258C117 91.5905 91.0344 117.506 59 117.506C26.9656 117.506 1 91.5905 1 59.6258C1 27.6611 26.9656 1.74512 59 1.74512C91.0344 1.74512 117 27.6611 117 59.6258Z" fill="white" stroke="#464646" stroke-width="2"/>
<path d="M59.0996 99.8948C75.5301 99.8948 88.8496 82.0224 88.8496 59.9757C88.8496 37.929 75.5301 20.0566 59.0996 20.0566C42.6691 20.0566 29.3496 37.929 29.3496 59.9757C29.3496 82.0224 42.6691 99.8948 59.0996 99.8948Z" stroke="black" stroke-width="0.7" stroke-miterlimit="10" stroke-linecap="square"/>
<path d="M76.2695 53.0293C76.4695 54.2768 76.5595 55.5642 76.5595 56.8815C76.5595 57.141 76.5595 57.4903 76.5395 57.9294C76.3095 57.9793 76.1395 57.9993 76.0295 57.9993C75.9295 57.9993 75.7895 57.9793 75.6095 57.9494C74.9295 56.0532 73.8095 54.5862 72.2695 53.5683C70.7195 52.5403 68.8095 52.0314 66.5295 52.0314C65.3195 52.0314 64.3095 52.1711 63.4795 52.4505C62.0195 52.9495 60.7295 53.6481 59.6195 54.5363C58.5095 55.4245 57.5795 56.4823 56.8095 57.6999C56.0395 58.9274 55.4395 60.4144 54.9895 62.1608C54.5395 63.9073 54.3195 65.6937 54.3195 67.51C54.3195 70.983 54.8495 73.8571 55.9095 76.1225C56.9695 78.3879 58.4195 80.0047 60.2595 80.9727C62.0995 81.9407 63.9495 82.4198 65.8295 82.4198L66.9795 82.3998C68.2795 82.2401 69.1695 82.0805 69.6395 81.9408C70.8295 81.6014 71.8095 81.2022 72.5795 80.7332C73.3495 80.2741 74.1095 79.6155 74.8495 78.7772C75.5895 77.9289 76.2195 76.9509 76.7395 75.8331L77.0295 75.7333C77.1095 75.7333 77.2295 75.7832 77.3995 75.883C77.3795 76.2722 77.3695 76.5217 77.3495 76.6415C76.6695 79.3859 76.1695 81.2621 75.8595 82.2701C75.5995 82.3399 75.2695 82.4298 74.8795 82.5595C72.9795 83.2082 70.4295 83.5375 67.2395 83.5375C64.6695 83.5375 62.7395 83.3679 61.4695 83.0186C60.1895 82.6693 58.7995 82.1204 57.2995 81.3819C55.7895 80.6434 54.4695 79.6654 53.3295 78.4478C52.1895 77.2303 51.2695 75.6934 50.5695 73.8272C49.8695 71.971 49.5195 69.9451 49.5195 67.7495C49.5195 65.6737 49.7995 63.8574 50.3495 62.3006C50.8995 60.7537 51.7595 59.1769 52.9095 57.5901C54.0695 56.0033 55.4295 54.676 56.9995 53.6182C58.5695 52.5603 60.3195 51.8118 62.2395 51.3727C63.5895 51.0833 65.4995 50.9336 67.9795 50.9336C69.7895 50.9336 71.4895 51.1731 73.0795 51.6521C74.6695 52.1312 75.7395 52.6002 76.2795 53.0493L76.2695 53.0293Z" fill="black"/>
<path d="M68.7698 66.0236C68.4798 65.8739 67.9598 65.6943 67.2098 65.4847C66.9998 65.4248 66.6298 65.325 66.0998 65.1953C65.5698 65.0655 65.2698 64.9657 65.1798 64.9059C64.8998 64.6763 64.5998 64.2073 64.2798 63.5087C63.9498 62.8001 63.2698 60.904 62.2298 57.8202L61.0098 54.457C59.8998 55.1257 58.8998 56.1336 58.1798 56.9819C58.7598 58.5687 59.1098 59.5966 59.2398 60.0257C59.4598 60.7543 59.7198 61.5327 60.0098 62.3411C60.4298 63.5586 60.6398 64.3171 60.6398 64.6065C60.6398 64.7562 60.5898 64.9757 60.4898 65.2651C60.1498 65.4148 59.6398 65.5046 58.9798 65.5346L56.4198 65.7042C56.2598 65.7242 56.0798 65.7741 55.8798 65.8739C55.7998 66.0835 55.7598 66.303 55.7598 66.5326C55.9098 66.6124 56.0698 66.6623 56.2498 66.6823H56.7898C56.9398 66.6823 57.1098 66.6823 57.3198 66.7122C57.5198 66.7322 57.7198 66.7421 57.9198 66.7421L60.8698 66.7022L63.3098 66.7521C65.4098 66.802 66.8698 66.822 67.6998 66.822C67.9098 66.822 68.2798 66.822 68.7998 66.802C68.8498 66.6423 68.8698 66.5226 68.8698 66.4328C68.8698 66.333 68.8398 66.1932 68.7698 66.0136V66.0236Z" fill="black"/>
<path d="M56.64 52.7898C56.67 52.8796 56.7 52.9594 56.74 53.0492C57.91 52.2908 59.03 51.7219 59.88 51.3427L56.55 42.3509C55.88 40.6743 55.4 39.4169 55.11 38.5786C54.57 36.9918 53.96 35.5048 53.26 34.1176L52.41 34.0977L51.69 34.1476C51.2 35.6745 50.79 36.892 50.44 37.8002C49.07 41.4028 48.21 43.7082 47.85 44.7161L45.55 51.1231C45.18 52.191 44.78 53.2189 44.38 54.1969C44.25 54.5063 43.93 55.3845 43.43 56.8316C42.37 59.8654 41.42 62.2207 40.57 63.8773C40.16 64.6457 39.67 65.1747 39.11 65.484C38.88 65.5938 38.14 65.7136 36.89 65.8234C36.61 65.8433 36.42 65.8433 36.31 65.8433H35.75C35.57 65.8433 35.37 65.9132 35.14 66.0429C35.08 66.2425 35.04 66.3922 35.04 66.502V66.6517C35.66 66.7016 36.16 66.7215 36.55 66.7215C36.79 66.7215 37.19 66.7016 37.75 66.6716C38.6 66.6417 39.19 66.6217 39.53 66.6217C39.87 66.6217 40.44 66.6417 41.24 66.6716C42.96 66.7515 44.48 66.7914 45.78 66.7914C46.17 66.7914 46.73 66.7914 47.46 66.7714C47.51 66.6118 47.53 66.492 47.53 66.4022C47.53 66.2924 47.44 66.1627 47.26 66.013L43.94 65.7236C43.37 65.6437 42.91 65.5539 42.57 65.4541C42.42 65.1148 42.35 64.8653 42.35 64.7256C42.35 64.4661 42.81 63.059 43.72 60.5141L45.87 53.8177C45.94 53.6081 46.07 53.2588 46.29 52.7698C46.96 52.69 47.57 52.6501 48.12 52.6501L49.66 52.67L54.88 52.6201C55.38 52.6201 55.97 52.68 56.64 52.7898ZM46.78 51.4325L46.63 51.3327C46.74 51.0733 46.83 50.8138 46.89 50.5643C46.95 50.3148 47.09 49.8757 47.32 49.247C47.55 48.6182 47.77 47.9895 47.98 47.3608C48.44 45.9436 49.19 43.9776 50.23 41.4428C50.85 39.9658 51.21 39.1275 51.31 38.9378L51.55 39.377L53.77 45.0055C53.88 45.295 54.47 46.8518 55.53 49.6861C55.74 50.235 55.93 50.8337 56.09 51.4625C55.13 51.5423 54.01 51.5822 52.75 51.5822C50.52 51.5822 48.54 51.5323 46.79 51.4325H46.78Z" fill="black"/>
</svg>
