<svg width="105" height="76" viewBox="0 0 105 76" fill="none" xmlns="http://www.w3.org/2000/svg">
<mask id="path-1-inside-1_176_274" fill="white">
<path fill-rule="evenodd" clip-rule="evenodd" d="M4.94308 0C2.21309 0 0 2.21309 0 4.94308V13.9305V19.7723V70.1018C0 72.8318 2.2131 75.0449 4.94308 75.0449H81.7855C84.5155 75.0449 86.7286 72.8318 86.7286 70.1018V13.9305C86.7286 11.2005 84.5155 8.98741 81.7855 8.98741H36.9405L35.0455 3.36447C34.368 1.35393 32.4829 0 30.3613 0H4.94308Z"/>
</mask>
<path fill-rule="evenodd" clip-rule="evenodd" d="M4.94308 0C2.21309 0 0 2.21309 0 4.94308V13.9305V19.7723V70.1018C0 72.8318 2.2131 75.0449 4.94308 75.0449H81.7855C84.5155 75.0449 86.7286 72.8318 86.7286 70.1018V13.9305C86.7286 11.2005 84.5155 8.98741 81.7855 8.98741H36.9405L35.0455 3.36447C34.368 1.35393 32.4829 0 30.3613 0H4.94308Z" fill="#D25F40"/>
<path d="M36.9405 8.98741L35.0452 9.62612L35.504 10.9874H36.9405V8.98741ZM35.0455 3.36447L33.1502 4.00319L35.0455 3.36447ZM2 4.94308C2 3.31766 3.31766 2 4.94308 2V-2C1.10852 -2 -2 1.10852 -2 4.94308H2ZM2 13.9305V4.94308H-2V13.9305H2ZM2 19.7723V13.9305H-2V19.7723H2ZM2 70.1018V19.7723H-2V70.1018H2ZM4.94308 73.0449C3.31767 73.0449 2 71.7273 2 70.1018H-2C-2 73.9364 1.10852 77.0449 4.94308 77.0449V73.0449ZM81.7855 73.0449H4.94308V77.0449H81.7855V73.0449ZM84.7286 70.1018C84.7286 71.7273 83.4109 73.0449 81.7855 73.0449V77.0449C85.62 77.0449 88.7286 73.9364 88.7286 70.1018H84.7286ZM84.7286 13.9305V70.1018H88.7286V13.9305H84.7286ZM81.7855 10.9874C83.4109 10.9874 84.7286 12.3051 84.7286 13.9305H88.7286C88.7286 10.0959 85.62 6.98741 81.7855 6.98741V10.9874ZM36.9405 10.9874H81.7855V6.98741H36.9405V10.9874ZM33.1502 4.00319L35.0452 9.62612L38.8357 8.34869L36.9408 2.72576L33.1502 4.00319ZM30.3613 2C31.6245 2 32.7468 2.80612 33.1502 4.00319L36.9408 2.72576C35.9891 -0.0982678 33.3414 -2 30.3613 -2V2ZM4.94308 2H30.3613V-2H4.94308V2Z" fill="#464646" mask="url(#path-1-inside-1_176_274)"/>
<path d="M14.078 18.8797C14.4931 17.0934 16.0849 15.8291 17.9188 15.8291H98.48C101.018 15.8291 102.895 18.1923 102.321 20.6647L90.6254 70.9942C90.2103 72.7805 88.6185 74.0448 86.7847 74.0448H6.22344C3.68523 74.0448 1.80818 71.6816 2.38269 69.2092L14.078 18.8797Z" fill="#D25F40" stroke="#464646" stroke-width="2"/>
</svg>
