<svg width="105" height="76" viewBox="0 0 105 76" fill="none" xmlns="http://www.w3.org/2000/svg">
<mask id="path-1-inside-1_176_249" fill="white">
<path fill-rule="evenodd" clip-rule="evenodd" d="M4.94308 0C2.21309 0 0 2.21309 0 4.94308V19.7723C0 19.7884 7.70904e-05 19.8045 0.000230923 19.8206V70.1019C0.000230923 72.8319 2.21333 75.045 4.94331 75.045H81.7857C84.5157 75.045 86.7288 72.8319 86.7288 70.1019V13.9306C86.7288 11.2006 84.5157 8.98749 81.7857 8.98749H36.9405L35.0455 3.36447C34.368 1.35393 32.4829 0 30.3613 0H4.94308Z"/>
</mask>
<path fill-rule="evenodd" clip-rule="evenodd" d="M4.94308 0C2.21309 0 0 2.21309 0 4.94308V19.7723C0 19.7884 7.70904e-05 19.8045 0.000230923 19.8206V70.1019C0.000230923 72.8319 2.21333 75.045 4.94331 75.045H81.7857C84.5157 75.045 86.7288 72.8319 86.7288 70.1019V13.9306C86.7288 11.2006 84.5157 8.98749 81.7857 8.98749H36.9405L35.0455 3.36447C34.368 1.35393 32.4829 0 30.3613 0H4.94308Z" fill="#475D8E"/>
<path d="M0.000230923 19.8206H2.00023V19.811L2.00014 19.8015L0.000230923 19.8206ZM36.9405 8.98749L35.0452 9.6262L35.504 10.9875H36.9405V8.98749ZM35.0455 3.36447L36.9408 2.72576L35.0455 3.36447ZM2 4.94308C2 3.31766 3.31766 2 4.94308 2V-2C1.10852 -2 -2 1.10852 -2 4.94308H2ZM2 19.7723V4.94308H-2V19.7723H2ZM2.00014 19.8015C2.00005 19.7918 2 19.7821 2 19.7723H-2C-2 19.7948 -1.99989 19.8173 -1.99968 19.8397L2.00014 19.8015ZM2.00023 70.1019V19.8206H-1.99977V70.1019H2.00023ZM4.94331 73.045C3.31789 73.045 2.00023 71.7273 2.00023 70.1019H-1.99977C-1.99977 73.9365 1.10876 77.045 4.94331 77.045V73.045ZM81.7857 73.045H4.94331V77.045H81.7857V73.045ZM84.7288 70.1019C84.7288 71.7273 83.4111 73.045 81.7857 73.045V77.045C85.6203 77.045 88.7288 73.9365 88.7288 70.1019H84.7288ZM84.7288 13.9306V70.1019H88.7288V13.9306H84.7288ZM81.7857 10.9875C83.4111 10.9875 84.7288 12.3052 84.7288 13.9306H88.7288C88.7288 10.096 85.6203 6.98749 81.7857 6.98749V10.9875ZM36.9405 10.9875H81.7857V6.98749H36.9405V10.9875ZM33.1502 4.00319L35.0452 9.6262L38.8358 8.34878L36.9408 2.72576L33.1502 4.00319ZM30.3613 2C31.6245 2 32.7468 2.80612 33.1502 4.00319L36.9408 2.72576C35.9891 -0.0982678 33.3414 -2 30.3613 -2V2ZM4.94308 2H30.3613V-2H4.94308V2Z" fill="#464646" mask="url(#path-1-inside-1_176_249)"/>
<path d="M14.078 18.8797C14.4931 17.0934 16.0849 15.8291 17.9188 15.8291H98.48C101.018 15.8291 102.895 18.1923 102.321 20.6647L90.6254 70.9942C90.2103 72.7805 88.6185 74.0448 86.7847 74.0448H6.22344C3.68523 74.0448 1.80818 71.6816 2.38269 69.2092L14.078 18.8797Z" fill="#475D8E" stroke="#464646" stroke-width="2"/>
</svg>
