<svg width="30" height="30" viewBox="0 0 30 30" fill="none" xmlns="http://www.w3.org/2000/svg">
<path d="M28 17C29.1046 17 30 16.1046 30 15C30 13.8954 29.1046 13 28 13L28 17ZM0.585787 13.5858C-0.195262 14.3668 -0.195262 15.6332 0.585786 16.4142L13.3137 29.1421C14.0948 29.9232 15.3611 29.9232 16.1421 29.1421C16.9232 28.3611 16.9232 27.0948 16.1421 26.3137L4.82843 15L16.1421 3.68629C16.9232 2.90524 16.9232 1.63891 16.1421 0.857862C15.3611 0.0768137 14.0948 0.0768135 13.3137 0.857862L0.585787 13.5858ZM28 13L2 13L2 17L28 17L28 13Z" fill="#464646"/>
</svg>
