<svg width="30" height="30" viewBox="0 0 30 30" fill="none" xmlns="http://www.w3.org/2000/svg">
<path d="M2 17C0.895431 17 1.85701e-07 16.1046 0 15C-1.85701e-07 13.8954 0.89543 13 2 13L2 17ZM29.4142 13.5858C30.1953 14.3668 30.1953 15.6332 29.4142 16.4142L16.6863 29.1421C15.9052 29.9232 14.6389 29.9232 13.8579 29.1421C13.0768 28.3611 13.0768 27.0948 13.8579 26.3137L25.1716 15L13.8579 3.68629C13.0768 2.90524 13.0768 1.63891 13.8579 0.857862C14.6389 0.0768137 15.9052 0.0768135 16.6863 0.857862L29.4142 13.5858ZM2 13L28 13L28 17L2 17L2 13Z" fill="#464646"/>
</svg>
