<svg width="118" height="118" viewBox="0 0 118 118" fill="none" xmlns="http://www.w3.org/2000/svg">
<path d="M117 58.8807C117 90.8454 91.0344 116.761 59 116.761C26.9656 116.761 1 90.8454 1 58.8807C1 26.916 26.9656 1 59 1C91.0344 1 117 26.916 117 58.8807Z" fill="white" stroke="#464646" stroke-width="2"/>
<path fill-rule="evenodd" clip-rule="evenodd" d="M93.4833 57.069C93.4833 53.6143 90.6827 50.8138 87.2281 50.8138C86.6425 50.8138 86.1679 51.2884 86.1679 51.874V73.3756L63.9166 41.0219C62.8594 39.4846 61.1132 38.5663 59.2474 38.5663H54.1185C53.4834 38.5663 52.9723 39.088 52.9854 39.723L53.2461 52.3576L53.0789 66.532C53.0789 72.933 48.5677 77.5662 42.2277 77.5662C35.8267 77.5662 31.3764 72.933 31.3764 66.532V40.1497C31.3764 39.6705 30.9879 39.2819 30.5086 39.2819C26.914 39.2819 24 42.1959 24 45.7905V66.593C24 76.8346 32.4128 85.0645 42.2277 85.0645C51.9816 85.0645 60.3944 76.8346 60.3944 66.593V48.8283L82.2573 79.8578C84.0527 82.4061 86.9753 83.9221 90.0927 83.9221H92.3954C92.9962 83.9221 93.4833 83.435 93.4833 82.8342V57.069Z" fill="#1CDE8F"/>
<path d="M29.1006 58.9668H43.6951" stroke="#1CDE8F" stroke-width="4.5335" stroke-linecap="round"/>
<path d="M27.9668 66.9014H40.8613" stroke="#1CDE8F" stroke-width="4.5335" stroke-linecap="round"/>
<circle cx="90.1256" cy="42.7106" r="4.71058" fill="#1CDE8F"/>
</svg>
